<svg width="20" height="20" viewBox="0 0 20 20" fill="none" xmlns="http://www.w3.org/2000/svg">
<path d="M5.99883 0.399902C2.91163 0.399902 0.400391 2.91347 0.400391 6.00146V14.0015C0.400391 17.0887 2.91395 19.5999 6.00195 19.5999H14.002C17.0892 19.5999 19.6004 17.0863 19.6004 13.9983V5.99834C19.6004 2.91114 17.0868 0.399902 13.9988 0.399902H5.99883ZM15.6004 3.5999C16.042 3.5999 16.4004 3.9583 16.4004 4.3999C16.4004 4.8415 16.042 5.1999 15.6004 5.1999C15.1588 5.1999 14.8004 4.8415 14.8004 4.3999C14.8004 3.9583 15.1588 3.5999 15.6004 3.5999ZM10.0004 5.1999C12.6476 5.1999 14.8004 7.3527 14.8004 9.9999C14.8004 12.6471 12.6476 14.7999 10.0004 14.7999C7.35319 14.7999 5.20039 12.6471 5.20039 9.9999C5.20039 7.3527 7.35319 5.1999 10.0004 5.1999ZM10.0004 6.7999C9.1517 6.7999 8.33777 7.13704 7.73765 7.73716C7.13753 8.33728 6.80039 9.15121 6.80039 9.9999C6.80039 10.8486 7.13753 11.6625 7.73765 12.2626C8.33777 12.8628 9.1517 13.1999 10.0004 13.1999C10.8491 13.1999 11.663 12.8628 12.2631 12.2626C12.8632 11.6625 13.2004 10.8486 13.2004 9.9999C13.2004 9.15121 12.8632 8.33728 12.2631 7.73716C11.663 7.13704 10.8491 6.7999 10.0004 6.7999Z" fill="white"/>
</svg>
