<svg width="21" height="21" viewBox="0 0 21 21" fill="none" xmlns="http://www.w3.org/2000/svg">
<rect width="21" height="21" rx="4" fill="#202020"/>
<path d="M11.0833 15.75H8.75V8.75H11.0833V9.91667C11.5807 9.2839 12.335 8.90667 13.1396 8.88825C14.5866 8.89628 15.7542 10.0738 15.75 11.5208V15.75H13.4167V11.8125C13.3234 11.1607 12.7644 10.6771 12.1059 10.6785C11.8179 10.6876 11.5461 10.8137 11.3531 11.0277C11.1601 11.2417 11.0627 11.5251 11.0833 11.8125V15.75ZM7.58333 15.75H5.25V8.75H7.58333V15.75ZM6.41667 7.58333C5.77233 7.58333 5.25 7.061 5.25 6.41667C5.25 5.77233 5.77233 5.25 6.41667 5.25C7.061 5.25 7.58333 5.77233 7.58333 6.41667C7.58333 6.72609 7.46042 7.02283 7.24162 7.24162C7.02283 7.46042 6.72609 7.58333 6.41667 7.58333Z" fill="white"/>
</svg>
