<svg width="56" height="40" viewBox="0 0 56 40" fill="none" xmlns="http://www.w3.org/2000/svg">
<g clip-path="url(#clip0_28_4024)">
<path d="M27.7435 22.7612C29.9418 22.7612 32.0908 22.113 33.9185 20.8985C35.7463 19.6841 37.1707 17.9581 38.0117 15.9387C38.8527 13.9192 39.0725 11.6972 38.6433 9.5536C38.214 7.40998 37.155 5.44109 35.6002 3.89595C34.0454 2.35081 32.0646 1.29882 29.9084 0.873058C27.7523 0.447293 25.5175 0.666872 23.4868 1.50402C21.4562 2.34117 19.7208 3.75829 18.5003 5.57612C17.2797 7.39396 16.6288 9.53086 16.6299 11.7165C16.6299 13.1674 16.9174 14.604 17.476 15.9444C18.0345 17.2847 18.8533 18.5025 19.8853 19.5281C20.9174 20.5538 22.1426 21.3672 23.4909 21.9219C24.8393 22.4767 26.2843 22.7618 27.7435 22.7612Z" fill="#C3C3C3"/>
<path d="M27.8134 28.2835H27.7762C24.0704 28.2825 20.4705 27.0545 17.5447 24.7933C14.6189 22.5322 12.5338 19.3665 11.6186 15.7962C11.0605 13.5873 9.25341 11.7166 6.96265 11.7166H0C0 19.041 2.92641 26.0654 8.13545 31.2446C13.3445 36.4237 20.4095 39.3333 27.7762 39.3333H27.8134V28.2835Z" fill="#C3C3C3"/>
<path d="M27.7451 28.2833H27.777C31.483 28.2833 35.0833 27.0557 38.0093 24.7943C40.9354 22.533 43.0202 19.3669 43.9346 15.7961C44.498 13.5871 46.3051 11.7164 48.5958 11.7164H55.5585C55.5571 19.0413 52.6295 26.0658 47.4196 31.2448C42.2097 36.4238 35.1442 39.3332 27.777 39.3332H27.7451V28.2833Z" fill="#C3C3C3"/>
<path d="M47.4199 31.2427C44.8406 33.8074 41.7784 35.8419 38.4083 37.2299C35.0382 38.6179 31.4261 39.3323 27.7783 39.3323C24.1305 39.3323 20.5184 38.6179 17.1483 37.2299C13.7781 35.8419 10.716 33.8074 8.13672 31.2427L15.9923 23.4323C19.1188 26.5389 23.3581 28.284 27.7783 28.284C32.1985 28.284 36.4378 26.5389 39.5643 23.4323L47.4199 31.2427Z" fill="#C3C3C3"/>
</g>
<defs>
<clipPath id="clip0_28_4024">
<rect width="56" height="38.6667" fill="white" transform="translate(0 0.666626)"/>
</clipPath>
</defs>
</svg>
