<svg width="56" height="56" viewBox="0 0 56 56" fill="none" xmlns="http://www.w3.org/2000/svg">
<path fill-rule="evenodd" clip-rule="evenodd" d="M18.7016 29.0235C18.8202 28.6519 18.8695 28.269 18.8606 27.8909C18.8469 27.6171 18.8113 27.3437 18.7332 27.0699C18.4981 26.22 17.9415 25.4606 17.1074 24.9819L5.24361 18.1636C3.56884 17.2042 1.43371 17.7747 0.47254 19.4392C-0.497936 21.1013 0.0744794 23.2239 1.74925 24.1858L8.37874 28.002L1.74925 31.8077C0.0744794 32.7712 -0.495913 34.8943 0.47254 36.5632C1.43371 38.2233 3.56884 38.791 5.24361 37.8315L17.1074 31.0089C17.9079 30.5503 18.4512 29.8312 18.7016 29.0235ZM21.9213 35.4129C21.2397 35.3549 20.5309 35.4975 19.8934 35.8671L8.02073 42.6809C6.35041 43.6423 5.78002 45.7763 6.74402 47.4412C7.71248 49.1017 9.84558 49.6734 11.5135 48.7075L18.1652 44.8885V52.5196C18.1652 54.4422 19.7279 56 21.662 56C23.5868 56 25.1543 54.4422 25.1543 52.5196V38.8776C25.1543 37.046 23.728 35.5417 21.9213 35.4129ZM34.08 20.5867C34.7596 20.6427 35.4663 20.4981 36.1038 20.1329L47.9741 13.3127C49.6468 12.3508 50.2144 10.2257 49.2528 8.55638C48.2892 6.89471 46.1541 6.32458 44.4838 7.28567L37.8365 11.1091V3.47554C37.8365 1.55819 36.2738 0 34.3397 0C32.4056 0 30.8469 1.55819 30.8469 3.47554V17.1176C30.8469 18.9472 32.2693 20.4538 34.08 20.5867ZM8.02073 13.3127L19.8934 20.1329C20.5309 20.4981 21.2397 20.6427 21.9213 20.5867C23.728 20.4538 25.1543 18.9472 25.1543 17.1176V3.47554C25.1543 1.55819 23.5868 0 21.662 0C19.7279 0 18.1652 1.55819 18.1652 3.47554V11.1091L11.5135 7.28567C9.84558 6.32458 7.71248 6.89471 6.74402 8.55638C5.78002 10.2257 6.35041 12.3508 8.02073 13.3127ZM30.3328 27.9734C30.3328 27.7753 30.2122 27.4991 30.0714 27.3526L28.6426 25.9369C28.5019 25.7972 28.2243 25.6812 28.0249 25.6812H27.9695C27.7705 25.6812 27.4934 25.7972 27.3546 25.9369L25.9258 27.3526C25.7826 27.4991 25.673 27.7753 25.673 27.9734V28.029C25.673 28.2247 25.7826 28.4985 25.9258 28.641L27.3546 30.0607C27.4954 30.2008 27.7705 30.3164 27.9695 30.3164H28.0249C28.2243 30.3164 28.5019 30.2008 28.6426 30.0607L30.0714 28.641C30.2122 28.4985 30.3328 28.2247 30.3328 28.029V27.9734ZM34.277 29.3351L29.3425 34.2404C29.2013 34.3846 28.9286 34.5025 28.7231 34.5025H28.3651H27.6362H27.2721C27.0726 34.5025 26.7955 34.3846 26.6523 34.2404L21.7203 29.3351C21.5791 29.197 21.465 28.9192 21.465 28.7231V28.3604V27.6348V27.2769C21.465 27.0764 21.5791 26.7981 21.7203 26.658L26.6523 21.7531C26.7955 21.6086 27.0726 21.495 27.2721 21.495H27.6362H28.3651H28.7231C28.9242 21.495 29.2013 21.6086 29.3425 21.7531L34.277 26.658C34.4178 26.7981 34.5318 27.0764 34.5318 27.2769V27.6348V28.3604V28.7231C34.5318 28.9192 34.4178 29.197 34.277 29.3351ZM47.9741 42.6809L36.1038 35.8671C35.4663 35.4975 34.7596 35.3549 34.08 35.4129C32.2693 35.5417 30.8469 37.046 30.8469 38.8776V52.5196C30.8469 54.4422 32.4056 56 34.3397 56C36.2738 56 37.8365 54.4422 37.8365 52.5196V44.8885L44.4838 48.7075C46.1537 49.6734 48.2892 49.1017 49.2528 47.4412C50.2144 45.7763 49.6468 43.6423 47.9741 42.6809ZM54.2504 24.1858L47.6205 28.002L54.2504 31.8077C55.9248 32.7712 56.4972 34.8943 55.5291 36.5632C54.5631 38.2233 52.426 38.791 50.7577 37.8315L38.885 31.0089C38.0933 30.5503 37.5436 29.8312 37.2996 29.0235C37.1835 28.6519 37.1297 28.269 37.1431 27.8909C37.15 27.6171 37.19 27.3437 37.2661 27.0699C37.5035 26.22 38.0602 25.461 38.885 24.9819L50.7577 18.1636C52.426 17.2042 54.5631 17.7747 55.5291 19.4392C56.4972 21.1013 55.9248 23.2239 54.2504 24.1858Z" fill="#C3C3C3"/>
</svg>
