<svg width="38" height="54" viewBox="0 0 38 54" fill="none" xmlns="http://www.w3.org/2000/svg">
<path fill-rule="evenodd" clip-rule="evenodd" d="M15.1402 16.1463C15.1402 13.8458 17.0551 12.961 20.2268 12.961C24.7748 12.961 30.5197 14.3177 35.0677 16.7362V2.87408C30.1008 0.927484 25.1937 0.160645 20.2268 0.160645C8.07874 0.160645 0 6.41333 0 16.8541C0 33.1347 22.7402 30.5393 22.7402 37.5588C22.7402 40.2722 20.3465 41.157 16.9953 41.157C12.0283 41.157 5.68504 39.1515 0.658268 36.438V50.477C6.22362 52.8365 11.8488 53.8393 16.9953 53.8393C29.4425 53.8393 38 47.7636 38 37.2049C37.9402 19.6266 15.1402 22.7529 15.1402 16.1463Z" fill="#C3C3C3"/>
</svg>
