<svg width="56" height="66" viewBox="0 0 56 66" fill="none" xmlns="http://www.w3.org/2000/svg">
<g clip-path="url(#clip0_28_4017)">
<path d="M40.2812 8.34652V56.8817C40.2812 62.3168 44.0117 65.3388 47.9711 65.3388C51.6332 65.3388 55.6609 62.765 55.6609 56.8817V8.71419C55.6609 3.73888 51.9993 0.625 47.9711 0.625C43.9429 0.625 40.2812 4.06061 40.2812 8.34652Z" fill="#C3C3C3"/>
<path d="M20.1406 32.9819V56.8817C20.1406 62.3168 23.8712 65.3388 27.8305 65.3388C31.4924 65.3388 35.5205 62.765 35.5205 56.8817V33.3496C35.5205 28.3743 31.8586 25.2604 27.8305 25.2604C23.8025 25.2604 20.1406 28.696 20.1406 32.9819Z" fill="#C3C3C3"/>
<path d="M15.3798 57.6173C15.3798 61.8802 11.9354 65.3387 7.6899 65.3387C3.44444 65.3387 0 61.8802 0 57.6173C0 53.3545 3.44444 49.8959 7.6899 49.8959C11.9354 49.8959 15.3798 53.3545 15.3798 57.6173Z" fill="#C3C3C3"/>
</g>
<defs>
<clipPath id="clip0_28_4017">
<rect width="56" height="64.75" fill="white" transform="translate(0 0.625)"/>
</clipPath>
</defs>
</svg>
