<svg width="56" height="42" viewBox="0 0 56 42" fill="none" xmlns="http://www.w3.org/2000/svg">
<path d="M25.8666 11.0908V41.9973H0L25.8666 11.0908ZM25.8666 0C25.8666 3.39467 24.504 6.65031 22.0785 9.05072C19.653 11.4511 16.3634 12.7996 12.9333 12.7996C9.50318 12.7996 6.21355 11.4511 3.78807 9.05072C1.36261 6.65031 0 3.39467 0 0H25.8666ZM30.1279 42C30.1279 38.6054 31.4904 35.3496 33.916 32.9493C36.3413 30.5488 39.6311 29.2004 43.0612 29.2004C46.4912 29.2004 49.781 30.5488 52.2063 32.9493C54.632 35.3496 55.9945 38.6054 55.9945 42H30.1279ZM30.1279 30.9092V0H56L30.1279 30.9064V30.9092Z" fill="#C3C3C3"/>
</svg>
