<svg width="56" height="56" viewBox="0 0 56 56" fill="none" xmlns="http://www.w3.org/2000/svg">
<g clip-path="url(#clip0_28_4009)">
<path d="M11.9935 35.2752C11.9935 38.4941 9.39191 41.0957 6.17301 41.0957C2.95411 41.0957 0.352539 38.4941 0.352539 35.2752C0.352539 32.0563 2.95411 29.4547 6.17301 29.4547H11.9935V35.2752ZM14.9037 35.2752C14.9037 32.0563 17.5053 29.4547 20.7242 29.4547C23.9431 29.4547 26.5447 32.0563 26.5447 35.2752V49.8264C26.5447 53.0453 23.9431 55.6468 20.7242 55.6468C17.5053 55.6468 14.9037 53.0453 14.9037 49.8264V35.2752Z" fill="#C3C3C3"/>
<path d="M20.7243 11.905C17.5054 11.905 14.9039 9.30341 14.9039 6.08451C14.9039 2.86561 17.5054 0.264038 20.7243 0.264038C23.9432 0.264038 26.5448 2.86561 26.5448 6.08451V11.905H20.7243ZM20.7243 14.8593C23.9432 14.8593 26.5448 17.4609 26.5448 20.6798C26.5448 23.8987 23.9432 26.5003 20.7243 26.5003H6.12907C2.91017 26.5003 0.308594 23.8987 0.308594 20.6798C0.308594 17.4609 2.91017 14.8593 6.12907 14.8593H20.7243Z" fill="#C3C3C3"/>
<path d="M44.0502 20.6798C44.0502 17.4609 46.6518 14.8593 49.8707 14.8593C53.0896 14.8593 55.6911 17.4609 55.6911 20.6798C55.6911 23.8987 53.0896 26.5003 49.8707 26.5003H44.0502V20.6798ZM41.14 20.6798C41.14 23.8987 38.5384 26.5003 35.3195 26.5003C32.1006 26.5003 29.499 23.8987 29.499 20.6798V6.08451C29.499 2.86561 32.1006 0.264038 35.3195 0.264038C38.5384 0.264038 41.14 2.86561 41.14 6.08451V20.6798Z" fill="#C3C3C3"/>
<path d="M35.3195 44.0059C38.5384 44.0059 41.14 46.6075 41.14 49.8264C41.14 53.0453 38.5384 55.6468 35.3195 55.6468C32.1006 55.6468 29.499 53.0453 29.499 49.8264V44.0059H35.3195ZM35.3195 41.0957C32.1006 41.0957 29.499 38.4941 29.499 35.2752C29.499 32.0563 32.1006 29.4547 35.3195 29.4547H49.9148C53.1337 29.4547 55.7352 32.0563 55.7352 35.2752C55.7352 38.4941 53.1337 41.0957 49.9148 41.0957H35.3195Z" fill="#C3C3C3"/>
</g>
<defs>
<clipPath id="clip0_28_4009">
<rect width="56" height="56" fill="white"/>
</clipPath>
</defs>
</svg>
