<svg width="56" height="48" viewBox="0 0 56 48" fill="none" xmlns="http://www.w3.org/2000/svg">
<g clip-path="url(#clip0_28_4019)">
<path d="M24.692 0.792901L4.07571 9.45388C2.92924 9.93559 2.94112 11.5892 4.09477 12.0535L24.7971 20.3886C26.6161 21.1209 28.6417 21.1209 30.4607 20.3886L51.1632 12.0532C52.3165 11.5892 52.329 9.93591 51.182 9.4542L30.5663 0.792583C28.6855 0.00240718 26.5726 0.00240718 24.6917 0.792583" fill="#C3C3C3"/>
<path d="M29.4658 24.9404V45.7629C29.4658 46.7529 30.4495 47.4314 31.3561 47.0664L54.4248 37.9755C54.6821 37.872 54.9028 37.6923 55.0583 37.4598C55.2138 37.2274 55.2969 36.9529 55.2968 36.6719V15.8497C55.2968 14.8594 54.3133 14.1812 53.4065 14.5461L30.3379 23.6371C30.0806 23.7407 29.8599 23.9204 29.7044 24.1529C29.549 24.3853 29.4658 24.6598 29.4658 24.9408" fill="#C3C3C3"/>
<path d="M24.0788 26.0143L17.2326 29.3705L16.5375 29.7116L2.08539 36.7421C1.16959 37.1908 0 36.513 0 35.4798V15.9364C0 15.5626 0.188785 15.2399 0.441957 14.9971C0.54582 14.8921 0.663652 14.8024 0.792022 14.7306C1.13709 14.5202 1.62968 14.464 2.04851 14.6322L23.9638 23.4484C25.0778 23.8971 25.1654 25.4818 24.0788 26.0147" fill="#C3C3C3"/>
<path d="M24.0783 26.0143L17.2321 29.3705L0.441406 14.9969C0.54529 14.8919 0.663121 14.8024 0.791471 14.7306C1.13654 14.5202 1.62913 14.464 2.04796 14.6322L23.9633 23.4484C25.0773 23.8971 25.1648 25.4818 24.0783 26.0147" fill="#C3C3C3"/>
</g>
<defs>
<clipPath id="clip0_28_4019">
<rect width="56" height="47.6" fill="white" transform="translate(0 0.199951)"/>
</clipPath>
</defs>
</svg>
