<svg width="46" height="79" viewBox="0 0 46 79" fill="none" xmlns="http://www.w3.org/2000/svg">
<circle cx="42.7143" cy="3.28571" r="3.28571" transform="rotate(90 42.7143 3.28571)" fill="#202020"/>
<circle cx="42.7143" cy="27.3809" r="3.28571" transform="rotate(90 42.7143 27.3809)" fill="#202020"/>
<circle cx="42.7143" cy="51.4761" r="3.28571" transform="rotate(90 42.7143 51.4761)" fill="#202020"/>
<circle cx="42.7143" cy="75.5714" r="3.28571" transform="rotate(90 42.7143 75.5714)" fill="#202020"/>
<circle cx="23.0004" cy="3.28571" r="3.28571" transform="rotate(90 23.0004 3.28571)" fill="#202020"/>
<circle cx="23.0004" cy="27.3809" r="3.28571" transform="rotate(90 23.0004 27.3809)" fill="#202020"/>
<circle cx="23.0004" cy="51.4761" r="3.28571" transform="rotate(90 23.0004 51.4761)" fill="#202020"/>
<circle cx="23.0004" cy="75.5714" r="3.28571" transform="rotate(90 23.0004 75.5714)" fill="#202020"/>
<circle cx="3.28557" cy="3.28571" r="3.28571" transform="rotate(90 3.28557 3.28571)" fill="#202020"/>
<circle cx="3.28557" cy="27.3809" r="3.28571" transform="rotate(90 3.28557 27.3809)" fill="#202020"/>
<circle cx="3.28557" cy="51.4761" r="3.28571" transform="rotate(90 3.28557 51.4761)" fill="#202020"/>
<circle cx="3.28557" cy="75.5714" r="3.28571" transform="rotate(90 3.28557 75.5714)" fill="#202020"/>
</svg>
