<svg width="49" height="48" viewBox="0 0 49 48" fill="none" xmlns="http://www.w3.org/2000/svg">
<path fill-rule="evenodd" clip-rule="evenodd" d="M30.3018 3.06223C24.4153 3.73553 19.9774 6.44415 19.114 9.89058C19.0048 10.3265 18.9707 11.6691 18.9697 15.5709L18.9684 20.6803H10.9982H3.02784L2.76546 20.9606L2.50297 21.2408V25.8206C2.50297 28.5896 2.54435 30.483 2.60765 30.6092C2.76803 30.9292 3.29738 31.0704 4.33652 31.0704H5.28286V32.8972V34.7241H4.12536C2.35617 34.7241 2.50297 34.2577 2.50297 39.878V44.5034L2.75038 44.7518L2.9979 45H17.0589H31.1199L31.3524 44.7358C31.5698 44.4886 31.5848 44.3603 31.5848 42.7535V41.0354L33.643 40.973C37.165 40.8661 39.7805 40.2071 42.3836 38.7707C44.1446 37.7991 45.4241 36.4898 46.1151 34.9524L46.5 34.0961V21.9848V9.87346L46.0489 8.90135C44.3662 5.27486 39.0545 2.94075 32.6219 3.00114C31.5516 3.01119 30.5076 3.03871 30.3018 3.06223ZM35.3044 4.93016C39.2009 5.38242 42.7125 6.9962 44.1175 8.98002C45.2866 10.6308 45.0609 12.3705 43.4712 13.9621C41.3115 16.1244 37.3393 17.3961 32.761 17.3909C30.5208 17.3884 29.0947 17.2034 27.2012 16.6698C24.7908 15.9905 23.0939 15.0636 21.8957 13.7716C21.0382 12.847 20.6791 12.0549 20.6791 11.0875C20.6791 8.29336 24.5449 5.71205 29.8207 4.98314C31.159 4.79818 33.9363 4.77146 35.3044 4.93016ZM21.6949 16.0146C23.4793 17.463 26.3365 18.5678 29.4999 19.0325C31.0331 19.2577 34.1525 19.2853 35.7012 19.0873C39.0172 18.6636 41.9789 17.5316 43.9292 15.9425L44.8428 15.1982L44.8427 18.9383L44.8425 22.6784L44.5326 23.3781C43.3022 26.1557 38.6073 28.2142 33.4025 28.2581L31.6383 28.2731L31.6101 24.712L31.5819 21.1511L31.3016 20.9156C31.0274 20.6853 30.9109 20.6803 25.8503 20.6803H20.6791V17.9306V15.1807L20.9732 15.4241C21.1348 15.5579 21.4597 15.8236 21.6949 16.0146ZM29.8741 25.8754V29.2436H17.0439H4.21367V25.8754V22.5071H17.0439H29.8741V25.8754ZM19.8773 25.0367C19.3365 25.3525 19.2222 26.0607 19.6435 26.4835C19.8882 26.7288 19.9353 26.7317 23.7413 26.7317H27.5915L27.8241 26.4675C28.0531 26.207 28.1201 25.7856 27.9901 25.4238C27.8176 24.9434 27.495 24.9047 23.7049 24.9083C21.2964 24.9107 20.0198 24.9535 19.8773 25.0367ZM44.6308 34.0642C43.633 36.9125 38.4915 39.177 33.0228 39.177H31.5848V37.1987C31.5848 34.6878 31.6236 34.7481 29.9784 34.6998L28.8584 34.667L28.829 32.8687L28.7995 31.0704H29.768C30.8922 31.0704 31.4371 30.8844 31.5351 30.467C31.5998 30.192 31.6071 30.1908 33.4368 30.1215C34.447 30.0831 35.7787 29.9702 36.3962 29.8703C39.5938 29.3532 42.6844 28.0532 44.2795 26.554L44.7893 26.0749L44.8175 29.7631C44.8439 33.2189 44.8322 33.4899 44.6308 34.0642ZM27.0943 32.8972V34.7241H17.0439H6.99356V32.8972V31.0704H17.0439H27.0943V32.8972ZM29.8741 39.862V43.1732H17.0439H4.21367V39.862V36.5509H17.0439H29.8741V39.862ZM19.6586 39.2289C19.4931 39.4056 19.3961 39.6396 19.3961 39.862C19.3961 40.0845 19.4931 40.3185 19.6586 40.4952L19.921 40.7755H23.7263H27.5317L27.794 40.4952C27.9596 40.3185 28.0565 40.0845 28.0565 39.862C28.0565 39.6396 27.9596 39.4056 27.794 39.2289L27.5317 38.9486H23.7263H19.921L19.6586 39.2289Z" fill="#FFC386"/>
</svg>
