<svg width="48" height="48" viewBox="0 0 48 48" fill="none" xmlns="http://www.w3.org/2000/svg">
<path fill-rule="evenodd" clip-rule="evenodd" d="M31.2 1.27857C31.0568 1.42363 30.938 1.63672 30.9361 1.7522C30.9341 1.86767 30.7787 3.46249 30.5908 5.29628C30.348 7.6656 30.2736 8.70162 30.3337 8.87637C30.5298 9.44599 31.3041 9.59087 31.7483 9.14115C31.8916 8.99608 32.0095 8.8033 32.0105 8.71263C32.0116 8.62196 32.1685 7.02624 32.3595 5.16647C32.6619 2.22077 32.6913 1.74814 32.588 1.49752C32.3581 0.940442 31.645 0.827944 31.2 1.27857ZM17.3381 7.23374C16.7625 7.44358 16.1355 7.87526 15.8437 8.26264C15.7211 8.42557 14.006 11.8729 12.0325 15.9235L8.44436 23.2881L6.3062 24.7423C3.83769 26.4211 3.11757 27.0865 2.5833 28.1825C2.11112 29.1512 1.95896 29.9127 2.00911 31.0564C2.06257 32.2735 2.30578 33.0184 2.98697 34.0509C4.0965 35.7325 5.57094 36.608 7.47257 36.7141C8.57176 36.7756 9.41651 36.6082 10.3132 36.1514C10.8036 35.9015 10.9524 35.8599 11.0341 35.9499C11.0906 36.0123 12.5701 38.205 14.3217 40.8227C16.5305 44.1235 17.6416 45.705 17.9473 45.9834C18.8138 46.7723 19.9602 47.1442 20.922 46.9487C22.4869 46.6305 23.5402 45.6371 23.8611 44.1772C24.0285 43.4148 23.9862 42.7428 23.7272 42.0518C23.6414 41.8226 22.2589 39.6763 20.6551 37.2825C19.0514 34.8886 17.7727 32.9007 17.8136 32.8647C17.8545 32.8288 19.8123 32.6469 22.1642 32.4605C31.0769 31.7542 31.3066 31.7308 31.8473 31.4718C33.5159 30.6724 34.3382 28.5863 34.0604 25.8571C33.309 18.4769 26.1087 8.80185 20.2098 7.24583C19.2818 7.00107 17.9913 6.99557 17.3381 7.23374ZM40.5092 8.26119C37.9073 9.94172 34.8624 12.0276 34.7779 12.1874C34.4748 12.761 34.9027 13.4645 35.5548 13.4645C35.8643 13.4645 36.2809 13.2167 38.9693 11.4337C40.6534 10.3167 42.1416 9.29839 42.2763 9.17074C42.6261 8.8392 42.6195 8.31758 42.2609 7.95446C41.8491 7.53749 41.5481 7.59018 40.5092 8.26119ZM20.1597 9.10452C22.7422 9.96274 26.0741 12.9801 28.5107 16.6671C31.1527 20.6651 32.3693 23.959 32.255 26.8049C32.1923 28.3657 31.8026 29.2146 30.9035 29.748C30.3427 30.0808 29.8509 30.1191 29.0373 29.893C25.5489 28.9239 21.1296 24.3769 18.4626 19.0127C17.1863 16.4458 16.4992 14.0309 16.4859 12.0662C16.4766 10.6992 16.6626 10.0507 17.2279 9.47819C17.9573 8.7396 18.7556 8.63784 20.1597 9.10452ZM15.2063 15.3753C16.5466 20.6706 20.6814 26.7374 25.0752 29.8549C25.4807 30.1427 25.7534 30.3881 25.6811 30.4003C25.0545 30.5056 15.1309 31.2306 15.0823 31.1747C14.9574 31.0309 10.2477 23.9738 10.2097 23.8733C10.1734 23.7778 14.8154 14.0671 14.8706 14.1229C14.8844 14.137 15.0355 14.7005 15.2063 15.3753ZM21.6985 15.8435C21.042 16.0131 20.0917 16.5055 19.9257 16.7621C19.8486 16.8813 19.7855 17.1306 19.7855 17.3161C19.7855 17.5798 19.8461 17.7082 20.0631 17.9045C20.4285 18.2351 20.7381 18.2255 21.4227 17.8625C21.9342 17.5912 22.0392 17.5693 22.8272 17.5693C23.5507 17.5693 23.7458 17.6026 24.1242 17.7906C25.38 18.4143 26.0719 19.8906 25.7342 21.2258C25.5338 22.0175 25.3394 22.311 24.491 23.1023C24.0612 23.5032 24.0377 23.991 24.4292 24.3875C24.9097 24.8741 25.4294 24.7211 26.278 23.8433C28.2714 21.7812 27.9232 18.2283 25.5669 16.585C24.5285 15.8608 22.8653 15.542 21.6985 15.8435ZM36.5423 17.7497C36.0371 18.0278 35.9967 18.8089 36.4692 19.1661C36.7414 19.372 43.9349 20.7178 44.3142 20.6339C44.6373 20.5623 44.9241 20.227 44.9845 19.85C45.0265 19.5882 44.9911 19.4837 44.7795 19.2439C44.5652 19.001 44.4158 18.9341 43.8566 18.8303C40.2183 18.1551 37.1567 17.615 36.9851 17.618C36.8696 17.62 36.6703 17.6793 36.5423 17.7497ZM10.941 28.1695C12.0557 29.8317 13.0808 31.3588 13.219 31.5631L13.4701 31.9345L11.67 33.1783C10.6799 33.8624 9.65964 34.5203 9.40288 34.6401C7.91962 35.3321 6.24535 35.0134 5.05181 33.8119C3.34698 32.0957 3.29736 29.5062 4.93911 27.9281C5.19319 27.6838 8.86718 25.0927 8.90202 25.1332C8.9087 25.1409 9.82624 26.5073 10.941 28.1695ZM18.8474 37.7323C20.5604 40.2876 22.0175 42.509 22.0854 42.6687C22.4749 43.5852 21.8948 44.8032 20.9124 45.1315C20.4303 45.2926 19.7432 45.1853 19.324 44.8835C18.8547 44.5457 12.3413 34.8465 12.5159 34.7455C12.5795 34.7087 13.1528 34.3113 13.7898 33.8624C14.8603 33.1079 14.9777 33.0476 15.3404 33.0661L15.7329 33.0862L18.8474 37.7323Z" fill="#FFC386"/>
</svg>
