<svg width="49" height="48" viewBox="0 0 49 48" fill="none" xmlns="http://www.w3.org/2000/svg">
<path d="M37.6744 13C37.5581 12.9806 37.4225 12.9806 37.3062 13C34.6318 12.9031 32.5 10.7132 32.5 8C32.5 5.22868 34.7287 3 37.5 3C40.2713 3 42.5 5.24806 42.5 8C42.4806 10.7132 40.3488 12.9031 37.6744 13Z" stroke="#FFC386" stroke-width="2" stroke-linecap="round" stroke-linejoin="round"/>
<path d="M35.5597 29.7984C38.2847 30.3477 41.2882 29.7745 43.3966 28.0788C46.2011 25.8339 46.2011 22.156 43.3966 19.911C41.2683 18.2153 38.225 17.6421 35.5 18.2153" stroke="#FFC386" stroke-width="2" stroke-linecap="round" stroke-linejoin="round"/>
<path d="M11.3256 13C11.4419 12.9806 11.5775 12.9806 11.6938 13C14.3682 12.9031 16.5 10.7132 16.5 8C16.5 5.22868 14.2713 3 11.5 3C8.72869 3 6.5 5.24806 6.5 8C6.51938 10.7132 8.65117 12.9031 11.3256 13Z" stroke="#FFC386" stroke-width="2" stroke-linecap="round" stroke-linejoin="round"/>
<path d="M13.4403 29.7984C10.7153 30.3477 7.71184 29.7745 5.60343 28.0788C2.79886 25.8339 2.79886 22.156 5.60343 19.911C7.73173 18.2153 10.775 17.6421 13.5 18.2153" stroke="#FFC386" stroke-width="2" stroke-linecap="round" stroke-linejoin="round"/>
<path d="M24.7093 30.0001C24.5698 29.9768 24.407 29.9768 24.2674 30.0001C21.0581 29.8838 18.5 27.2559 18.5 24.0001C18.5 20.6745 21.1744 18.0001 24.5 18.0001C27.8256 18.0001 30.5 20.6977 30.5 24.0001C30.4767 27.2559 27.9186 29.907 24.7093 30.0001Z" stroke="#FFC386" stroke-width="2" stroke-linecap="round" stroke-linejoin="round"/>
<path d="M17.8989 36.5845C14.7004 38.458 14.7004 41.5272 17.8989 43.4007C21.5284 45.5332 27.4716 45.5332 31.1011 43.4007C34.2996 41.5272 34.2996 38.458 31.1011 36.5845C27.4943 34.4719 21.5284 34.4719 17.8989 36.5845Z" stroke="#FFC386" stroke-width="2" stroke-linecap="round" stroke-linejoin="round"/>
</svg>
