<svg width="49" height="48" viewBox="0 0 49 48" fill="none" xmlns="http://www.w3.org/2000/svg">
<path d="M42.5 24.2221V28C42.5 35 38.5 38 32.5 38H12.5C6.5 38 2.5 35 2.5 28V16C2.5 8.99999 6.5 6 12.5 6H18.5C18.2111 6.84444 18.0556 7.77777 18.0556 8.77777V17.4445C18.0556 19.6 18.7667 21.4222 20.0333 22.6889C21.3 23.9555 23.1222 24.6667 25.2778 24.6667V27.7556C25.2778 28.8889 26.5667 29.5776 27.5222 28.9554L33.9444 24.6667H39.7222C40.7222 24.6667 41.6556 24.511 42.5 24.2221Z" stroke="#FFC386" stroke-width="2" stroke-miterlimit="10" stroke-linecap="round" stroke-linejoin="round"/>
<path d="M46.5 9.05637V17.5241C46.5 20.7591 44.8631 23.1907 42.1923 24.146C41.3738 24.4283 40.4692 24.5804 39.5 24.5804H33.9L27.6754 28.7707C26.7492 29.3786 25.5 28.7057 25.5 27.5984V24.5804C23.4108 24.5804 21.6446 23.8856 20.4169 22.648C19.1892 21.4105 18.5 19.6301 18.5 17.5241V9.05637C18.5 8.07933 18.6508 7.16743 18.9308 6.34238C19.8785 3.6501 22.2908 2 25.5 2H39.5C43.7 2 46.5 4.82255 46.5 9.05637Z" stroke="#FFC386" stroke-width="2" stroke-miterlimit="10" stroke-linecap="round" stroke-linejoin="round"/>
<path d="M13.5 46H30.5" stroke="#FFC386" stroke-width="2" stroke-miterlimit="10" stroke-linecap="round" stroke-linejoin="round"/>
<path d="M21.5 38V46" stroke="#FFC386" stroke-width="2" stroke-miterlimit="10" stroke-linecap="round" stroke-linejoin="round"/>
<path d="M39.491 13H39.509" stroke="#FFC386" stroke-width="2" stroke-linecap="round" stroke-linejoin="round"/>
<path d="M33.491 13H33.509" stroke="#FFC386" stroke-width="2" stroke-linecap="round" stroke-linejoin="round"/>
<path d="M27.491 13H27.509" stroke="#FFC386" stroke-width="2" stroke-linecap="round" stroke-linejoin="round"/>
</svg>
