<svg width="24" height="24" viewBox="0 0 24 24" fill="none" xmlns="http://www.w3.org/2000/svg">
<g clip-path="url(#clip0_28_4203)">
<path d="M9.71 18.29C10.1 17.9 10.1 17.27 9.71 16.88L5.83 13L21 13C21.55 13 22 12.55 22 12C22 11.45 21.55 11 21 11L5.82 11L9.7 7.12002C10.09 6.73002 10.09 6.10002 9.7 5.71002C9.31 5.32002 8.68 5.32002 8.29 5.71002L2.7 11.3C2.31 11.69 2.31 12.32 2.7 12.71L8.3 18.29C8.68 18.68 9.32 18.68 9.71 18.29Z" fill="black"/>
</g>
<defs>
<clipPath id="clip0_28_4203">
<rect width="24" height="24" fill="white" transform="translate(24 24) rotate(-180)"/>
</clipPath>
</defs>
</svg>
